<?xml version="1.0" encoding="UTF-8" standalone="no"?>
<!-- Created with Inkscape (http://www.inkscape.org/) -->

<svg
   width="164.27983mm"
   height="535.25598mm"
   viewBox="0 0 164.27983 535.25598"
   version="1.1"
   id="svg271"
   xml:space="preserve"
   inkscape:version="1.2.2 (732a01da63, 2022-12-09)"
   sodipodi:docname="parkkikiekko_111x154x32.svg"
   xmlns:inkscape="http://www.inkscape.org/namespaces/inkscape"
   xmlns:sodipodi="http://sodipodi.sourceforge.net/DTD/sodipodi-0.dtd"
   xmlns="http://www.w3.org/2000/svg"
   xmlns:svg="http://www.w3.org/2000/svg"><sodipodi:namedview
     id="namedview273"
     pagecolor="#ffffff"
     bordercolor="#000000"
     borderopacity="0.25"
     inkscape:showpageshadow="2"
     inkscape:pageopacity="0.0"
     inkscape:pagecheckerboard="0"
     inkscape:deskcolor="#d1d1d1"
     inkscape:document-units="mm"
     showgrid="false"
     inkscape:zoom="0.35355339"
     inkscape:cx="653.36666"
     inkscape:cy="900.85403"
     inkscape:window-width="1920"
     inkscape:window-height="1001"
     inkscape:window-x="-9"
     inkscape:window-y="-9"
     inkscape:window-maximized="1"
     inkscape:current-layer="layer1" /><defs
     id="defs268"><rect
       x="19.527007"
       y="1328.4664"
       width="30.865269"
       height="90.706097"
       id="rect2896" /><rect
       x="258.33722"
       y="1427.0904"
       width="23.161268"
       height="42.759264"
       id="rect2718" /><rect
       x="327.39044"
       y="1497.6522"
       width="43.133514"
       height="60.45763"
       id="rect2628" /><rect
       x="535"
       y="1374"
       width="33"
       height="64"
       id="rect2622" /><rect
       x="278.95362"
       y="1524.5222"
       width="42.779961"
       height="88.211572"
       id="rect2616" /><rect
       x="195.86858"
       y="1453.8115"
       width="38.890873"
       height="64.346717"
       id="rect2610" /><rect
       x="281.78205"
       y="1523.8151"
       width="22.98097"
       height="43.84062"
       id="rect2548" /><inkscape:path-effect
       effect="fillet_chamfer"
       id="path-effect9884"
       is_visible="true"
       lpeversion="1"
       nodesatellites_param="F,0,0,1,0,6.35,0,1 @ F,0,0,1,0,6.35,0,1 @ F,0,0,1,0,6.35,0,1 @ F,0,0,1,0,6.35,0,1"
       unit="px"
       method="auto"
       mode="F"
       radius="24"
       chamfer_steps="1"
       flexible="false"
       use_knot_distance="true"
       apply_no_radius="true"
       apply_with_radius="true"
       only_selected="false"
       hide_knots="false" /><inkscape:path-effect
       effect="fillet_chamfer"
       id="path-effect9827"
       is_visible="true"
       lpeversion="1"
       nodesatellites_param="F,1,0,1,0,0.14,0,1 @ F,1,0,1,0,0.14,0,1 @ F,1,0,1,0,0.14,0,1 @ F,1,0,1,0,0.14,0,1"
       unit="px"
       method="auto"
       mode="F"
       radius="14"
       chamfer_steps="1"
       flexible="true"
       use_knot_distance="true"
       apply_no_radius="true"
       apply_with_radius="true"
       only_selected="false"
       hide_knots="false" /><rect
       x="-930.25702"
       y="449.5267"
       width="90.685432"
       height="124.81436"
       id="rect419" /><rect
       x="-1055.0714"
       y="71.183189"
       width="260.35495"
       height="45.830273"
       id="rect363" /><rect
       x="258.33722"
       y="1427.0904"
       width="23.161268"
       height="42.759264"
       id="rect2724" /><rect
       x="258.33722"
       y="1427.0904"
       width="23.161268"
       height="42.759264"
       id="rect2728" /><rect
       x="258.33722"
       y="1427.0904"
       width="23.161268"
       height="42.759264"
       id="rect2732" /><rect
       x="258.33722"
       y="1427.0904"
       width="23.161268"
       height="42.759264"
       id="rect2736" /><rect
       x="258.33722"
       y="1427.0904"
       width="23.161268"
       height="42.759264"
       id="rect2740" /><rect
       x="258.33722"
       y="1427.0904"
       width="23.161268"
       height="42.759264"
       id="rect2744" /><rect
       x="258.33722"
       y="1427.0904"
       width="23.161268"
       height="42.759264"
       id="rect2748" /><rect
       x="258.33722"
       y="1427.0904"
       width="23.161268"
       height="42.759264"
       id="rect2752" /><rect
       x="258.33722"
       y="1427.0904"
       width="23.161268"
       height="42.759264"
       id="rect2756" /><rect
       x="258.33722"
       y="1427.0904"
       width="23.161268"
       height="42.759264"
       id="rect2760" /><rect
       x="258.33722"
       y="1427.0904"
       width="23.161268"
       height="42.759264"
       id="rect2764" /><rect
       x="258.33722"
       y="1427.0904"
       width="23.161268"
       height="42.759264"
       id="rect2772" /><rect
       x="258.33722"
       y="1427.0904"
       width="23.161268"
       height="42.759264"
       id="rect2776" /><rect
       x="258.33722"
       y="1427.0904"
       width="23.161268"
       height="42.759264"
       id="rect2780" /><rect
       x="258.33722"
       y="1427.0904"
       width="23.161268"
       height="42.759264"
       id="rect2784" /><rect
       x="258.33722"
       y="1427.0904"
       width="23.161268"
       height="42.759264"
       id="rect2788" /><rect
       x="258.33722"
       y="1427.0904"
       width="23.161268"
       height="42.759264"
       id="rect2792" /><rect
       x="258.33722"
       y="1427.0904"
       width="23.161268"
       height="42.759264"
       id="rect2796" /><rect
       x="258.33722"
       y="1427.0904"
       width="23.161268"
       height="42.759264"
       id="rect2800" /><rect
       x="258.33722"
       y="1427.0904"
       width="23.161268"
       height="42.759264"
       id="rect2804" /><rect
       x="258.33722"
       y="1427.0904"
       width="23.161268"
       height="42.759264"
       id="rect2808" /><rect
       x="258.33722"
       y="1427.0904"
       width="23.161268"
       height="42.759264"
       id="rect2812" /><rect
       x="258.33722"
       y="1427.0904"
       width="23.161268"
       height="42.759264"
       id="rect2816" /><rect
       x="258.33722"
       y="1427.0904"
       width="23.161268"
       height="42.759264"
       id="rect2820" /><rect
       x="258.33722"
       y="1427.0904"
       width="23.161268"
       height="42.759264"
       id="rect2824" /><rect
       x="258.33722"
       y="1427.0904"
       width="23.161268"
       height="42.759264"
       id="rect2828" /><rect
       x="258.33722"
       y="1427.0904"
       width="23.161268"
       height="42.759264"
       id="rect2832" /><rect
       x="19.527007"
       y="1328.4664"
       width="30.865269"
       height="90.706097"
       id="rect2904" /><rect
       x="19.527007"
       y="1328.4664"
       width="30.865269"
       height="90.706097"
       id="rect2910" /><rect
       x="19.527007"
       y="1328.4664"
       width="30.865269"
       height="90.706097"
       id="rect2916" /><rect
       x="19.527007"
       y="1328.4664"
       width="30.865269"
       height="90.706097"
       id="rect2922" /><rect
       x="19.527007"
       y="1328.4664"
       width="30.865269"
       height="90.706097"
       id="rect2928" /><rect
       x="19.527007"
       y="1328.4664"
       width="30.865269"
       height="90.706097"
       id="rect2934" /><rect
       x="19.527007"
       y="1328.4664"
       width="30.865269"
       height="90.706097"
       id="rect2940" /><rect
       x="19.527007"
       y="1328.4664"
       width="30.865269"
       height="90.706097"
       id="rect2946" /><rect
       x="19.527007"
       y="1328.4664"
       width="30.865269"
       height="90.706097"
       id="rect2952" /><rect
       x="19.527007"
       y="1328.4664"
       width="30.865269"
       height="90.706097"
       id="rect2958" /><rect
       x="19.527007"
       y="1328.4664"
       width="30.865269"
       height="90.706097"
       id="rect2964" /></defs><g
     inkscape:label="Taso 1"
     inkscape:groupmode="layer"
     id="layer1"
     transform="translate(-1.2732114,-1.1082104)"><g
       id="svgGroup-3"
       stroke-linecap="round"
       fill-rule="evenodd"
       font-size="12px"
       stroke="#000"
       stroke-width="0.25mm"
       fill="none"
       style="fill:none;stroke:#000000;stroke-width:0.02;stroke-dasharray:none"
       transform="translate(2.3262819,-38.987355)"><g
         id="svgGroup"
         stroke-linecap="round"
         fill-rule="evenodd"
         font-size="12px"
         stroke="#000"
         stroke-width="0.25mm"
         fill="none"
         style="fill:none;stroke:#000000;stroke-width:0.02;stroke-dasharray:none"
         transform="translate(-234.03326,38.207913)"><path
           d="m 258.07519,162.07438 h 6.952 v 3 h 7.673 v -3 h 6.952 v 3 h 7.673 v -3 h 14.484 v 3 h 7.673 v -3 h 6.952 v 3 h 7.673 v -3 h 6.952 v 3 h 7.673 v -3 h 7.258 l 2.495,-0.45 2.194,-1.303 1.601,-1.987 0.801,-2.413 0.073,-1.021 v -8.991 h 3 v -7.673 h -3 v -6.952 h 3 v -7.673 h -3 v -6.952 h 3 v -7.673 h -3 v -6.952 h 3 v -7.673 h -3 v -6.952 h 3 v -7.673 h -3 v -6.952 h 3 v -7.673 h -3 v -6.952 h 3 v -7.673 h -3 v -6.952 h 3 v -7.673 h -3 v -6.952 h 3 v -7.673 h -3 v -9.001 l -0.45,-2.4950004 -1.303,-2.194 -1.993,-1.605 -3.411,-0.87 h -11.031 v -3 h -7.673 v 3 h -6.952 v -3 h -7.673 v 3 h -6.952 v -3 h -7.673 v 3 h -6.952 v -3 h -7.673 v 3 h -6.952 v -3 h -7.673 v 3 h -6.952 v -3 h -7.673 v 3 h -11.024 l -2.495,0.45 -2.194,1.303 -1.601,1.987 -0.801,2.4130004 -0.073,1.021 v 8.991 h -3 v 7.673 h 3 v 6.952 h -3 v 7.673 h 3 v 6.952 h -3 v 7.673 h 3 v 6.952 h -3 v 7.673 h 3 v 6.952 h -3 v 7.673 h 3 v 6.952 h -3 v 7.673 h 3 v 6.952 h -3 v 7.673 h 3 v 6.952 h -3 v 7.673 h 3 v 6.952 h -3 v 7.673 h 3 v 9.001 l 0.45,2.495 1.303,2.194 1.987,1.601 2.413,0.801 1.021,0.073 h 7.248 v 3 h 7.673 z"
           id="TOP_outsideCutPath"
           stroke="#FF0000"
           stroke-width="0.1"
           style="stroke:#000000;stroke-width:0.02;stroke-dasharray:none;stroke-opacity:1"
           vector-effect="non-scaling-stroke" /><path
           d="m 258.68983,328.363 h 6.952 v 3 h 7.673 v -3 h 6.952 v 3 h 7.673 v -3 h 14.484 v 3 h 7.673 v -3 h 6.952 v 3 h 7.673 v -3 h 6.952 v 3 h 7.673 v -3 h 7.258 l 2.495,-0.45 2.194,-1.303 1.601,-1.987 0.801,-2.413 0.073,-1.021 v -8.991 h 3 v -7.673 h -3 v -6.952 h 3 V 289.9 h -3 v -6.952 h 3 v -7.673 h -3 v -6.952 h 3 v -7.673 h -3 v -6.952 h 3 v -7.673 h -3 v -6.952 h 3 V 231.4 h -3 v -6.952 h 3 v -7.673 h -3 v -6.952 h 3 v -7.673 h -3 v -6.952 h 3 v -7.673 h -3 v -9.001 l -0.45,-2.495 -1.303,-2.194 -1.993,-1.605 -3.411,-0.87 h -11.031 v -3 h -7.673 v 3 h -6.952 v -3 h -7.673 v 3 h -6.952 v -3 h -7.673 v 3 h -6.952 v -3 h -7.673 v 3 h -6.952 v -3 h -7.673 v 3 h -6.952 v -3 h -7.673 v 3 h -11.024 l -2.495,0.45 -2.194,1.303 -1.601,1.987 -0.801,2.413 -0.073,1.021 v 8.991 h -3 v 7.673 h 3 v 6.952 h -3 v 7.673 h 3 v 6.952 h -3 v 7.673 h 3 v 6.952 h -3 v 7.673 h 3 v 6.952 h -3 v 7.673 h 3 v 6.952 h -3 v 7.673 h 3 v 6.952 h -3 v 7.673 h 3 v 6.952 h -3 v 7.673 h 3 v 6.952 h -3 v 7.673 h 3 v 9.001 l 0.45,2.495 1.303,2.194 1.987,1.601 2.413,0.801 1.021,0.073 h 7.248 v 3 h 7.673 z"
           id="BOTTOM_outsideCutPath"
           stroke="#FF0000"
           stroke-width="0.1"
           style="stroke:#000000;stroke-width:0.02;stroke-dasharray:none;stroke-opacity:1"
           vector-effect="non-scaling-stroke" /><path
           id="SIDE_outsideCutPath"
           style="stroke:#000000;stroke-width:0.02;stroke-dasharray:none;stroke-opacity:1"
           d="m 361.90002,9.669653 v 6.953 h -3 v 7.672 h 3 v 6.953 h -3 v 7.672 h 3 v 6.953 h -3 v 27.943 h 3 v 6.952 h -3 v 7.673 h 3 v 6.951997 h -3 v 7.673 h 3 v 6.952 h -3 v 7.673 h 3 v 6.952 h -3 v 7.673 h 3 v 6.952 h -3 v 7.673 h 3 v 6.952 h -3 v 7.673 h 3 v 6.952 h -3 v 7.673 h 3 v 6.952 h -3 v 7.673 h 3 v 6.952 h -3 v 31.709 h 3 v 6.953 h -3 v 7.672 h 3 v 6.953 h -3 v 7.672 h 3 v 6.953 h -3 v 7.672 h 3 v 6.953 h -3 v 7.672 h 3 v 6.953 h -3 v 7.672 h 3 v 6.953 h -3 v 31.708 h 3 v 6.953 h -3 v 7.672 h 3 v 6.953 h -3 v 7.672 h 3 v 6.953 h -3 v 7.672 h 3 v 6.953 h -3 v 7.672 h 3 v 6.953 h -3 v 7.672 h 3 v 6.953 h -3 v 7.672 h 3 v 6.953 h -3 v 7.672 h 3 v 6.953 h -3 v 7.672 h 3 v 6.953 h -3 v 27.943 h 3 v 6.952 h -3 v 7.673 h 3 v 6.952 h -3 v 7.673 h 3 v 6.952 h -3 v 7.783 h 38.36 v -7.783 h -3 v -6.952 h 3 v -7.673 h -3 v -6.952 h 3 v -7.673 h -3 v -6.952 h 3 v -27.943 h -3 v -6.953 h 3 v -7.672 h -3 v -6.953 h 3 v -7.672 h -3 v -6.953 h 3 v -7.672 h -3 v -6.953 h 3 v -7.672 h -3 v -6.953 h 3 v -7.672 h -3 v -6.953 h 3 v -7.672 h -3 v -6.953 h 3 v -7.672 h -3 v -6.953 h 3 v -7.672 h -3 v -6.953 h 3 v -31.708 h -3 v -6.953 h 3 v -7.672 h -3 v -6.953 h 3 v -7.672 h -3 v -6.953 h 3 v -7.672 h -3 v -6.953 h 3 v -7.672 h -3 v -6.953 h 3 v -7.672 h -3 v -6.953 h 3 v -31.709 h -3 v -6.952 h 3 v -7.673 h -3 v -6.952 h 3 v -7.673 h -3 v -6.952 h 3 v -7.673 h -3 v -6.952 h 3 v -7.673 h -3 v -6.952 h 3 v -7.673 h -3 v -6.952 h 3 v -7.673 h -3 v -6.952 h 3 v -7.673 h -3 v -6.951997 h 3 v -7.673 h -3 v -6.952 h 3 v -27.943 h -3 v -6.953 h 3 v -7.672 h -3 v -6.953 h 3 v -7.672 h -3 v -6.953 h 3 V 1.8876529 h -38.36 V 9.669653 Z m -2.82,43.805 h 9.5 m 4.75,0 h 9.5 m 4.75,0 h 9.5 m -38,3.998 h 2.375 m 4.75,0 h 9.5 m 4.75,0 h 9.5 m 4.75,0 h 2.375 m -38,3.998 h 9.5 m 4.75,0 h 9.5 m 4.75,0 h 9.5 m -38,145.641997 h 9.5 m 4.75,0 h 9.5 m 4.75,0 h 9.5 m -38,3.998 h 2.375 m 4.75,0 h 9.5 m 4.75,0 h 9.5 m 4.75,0 h 2.375 m -38,3.998 h 9.5 m 4.75,0 h 9.5 m 4.75,0 h 9.5 m -38,105.814 h 9.5 m 4.75,0 h 9.5 m 4.75,0 h 9.5 m -38,3.998 h 2.375 m 4.75,0 h 9.5 m 4.75,0 h 9.5 m 4.75,0 h 2.375 m -38,3.997 h 9.5 m 4.75,0 h 9.5 m 4.75,0 h 9.5 m -38,145.643 h 9.5 m 4.75,0 h 9.5 m 4.75,0 h 9.5 m -38,3.998 h 2.375 m 4.75,0 h 9.5 m 4.75,0 h 9.5 m 4.75,0 h 2.375 m -38,3.998 h 9.5 m 4.75,0 h 9.5 m 4.75,0 h 9.5 M 390.68141,73.597193 v 14.94586 h -6.94586 v -14.94586 z" /></g></g><text
       xml:space="preserve"
       transform="matrix(0.26458325,0,0,0.3220531,309.0542,0.92603504)"
       id="text361"
       style="font-weight:bold;font-size:33.3333px;font-family:sans-serif;-inkscape-font-specification:'sans-serif Bold';letter-spacing:0px;white-space:pre;shape-inside:url(#rect363);display:inline;opacity:0.5;fill:#000000;stroke:none;stroke-width:0;stroke-dasharray:none;stroke-opacity:1"><tspan
         x="-1055.0723"
         y="101.51274"
         id="tspan3733"><tspan
           style="font-family:Arial;-inkscape-font-specification:'Arial Bold'"
           id="tspan3731">SAAPUMISAIKA</tspan></tspan></text><text
       xml:space="preserve"
       transform="matrix(0.38710986,0,0,0.37345997,411.60187,-55.579182)"
       id="text417"
       style="font-style:normal;font-variant:normal;font-weight:bold;font-stretch:normal;font-size:96px;font-family:Arial;-inkscape-font-specification:'Arial Bold';white-space:pre;shape-inside:url(#rect419);display:inline;opacity:0.5;fill:#000000;stroke:none;stroke-width:0;stroke-dasharray:none;stroke-opacity:1"><tspan
         x="-930.25781"
         y="535.99977"
         id="tspan3735">P</tspan></text><path
       id="rect485"
       style="opacity:0.5;fill:none;stroke:#0021ff;stroke-width:0.02;stroke-linecap:round;stroke-linejoin:round;stroke-miterlimit:0;stroke-dasharray:none;paint-order:markers stroke fill"
       inkscape:label="rect485"
       d="m 50.020274,112.36759 h 28.227178 a 5.124,5.124 45 0 1 5.124,5.124 v 26.04674 a 5.4292616,5.4292616 135 0 1 -5.429262,5.42926 H 49.715012 a 5.124,5.124 45 0 1 -5.124,-5.124 v -26.04674 a 5.4292616,5.4292616 135 0 1 5.429262,-5.42926 z"
       inkscape:original-d="m 44.591012,112.36759 h 38.78044 v 36.6 h -38.78044 z"
       inkscape:path-effect="#path-effect9827" /><path
       sodipodi:type="star"
       style="opacity:0.5;fill:none;stroke:#000000;stroke-width:0.604642;stroke-linecap:butt;stroke-linejoin:round;stroke-miterlimit:0;stroke-dasharray:none;stroke-opacity:1;paint-order:markers stroke fill"
       id="path5183"
       inkscape:flatsided="true"
       sodipodi:sides="3"
       sodipodi:cx="-244.60728"
       sodipodi:cy="41.341145"
       sodipodi:r1="18.719271"
       sodipodi:r2="9.3596354"
       sodipodi:arg1="1.5707963"
       sodipodi:arg2="2.6179939"
       inkscape:rounded="0"
       inkscape:randomized="0"
       d="m -244.60728,60.060415 -16.21137,-28.078905 32.42273,-1e-6 z"
       inkscape:transform-center-x="-1.304701e-06"
       inkscape:transform-center-y="5.6960356"
       transform="matrix(0.56182319,0,0,1.2171487,201.42214,0.32536064)" /><path
       id="rect9881"
       style="display:inline;opacity:0.5;fill:none;stroke:#001ddd;stroke-width:0.02;stroke-linejoin:round;stroke-miterlimit:0;stroke-dasharray:none;paint-order:markers stroke fill"
       d="m 49.547262,110.79174 h 28.92643 a 6.35,6.35 45 0 1 6.35,6.35 v 27.05554 a 6.35,6.35 135 0 1 -6.35,6.35 h -28.92643 a 6.35,6.35 45 0 1 -6.35,-6.35 l 0,-27.05554 a 6.35,6.35 135 0 1 6.35,-6.35 z"
       inkscape:original-d="m 43.197262,110.79174 h 41.62643 v 39.75554 h -41.62643 z"
       inkscape:path-effect="#path-effect9884" /><path
       id="path13214"
       style="display:inline;fill:none;stroke:#000002;stroke-width:0.02;stroke-miterlimit:0;stroke-dasharray:none"
       d="m 78.035202,70.428102 a 16.426409,12.426408 0 0 1 -14.17691,6.177401 16.426409,12.426408 0 0 1 -14.16761,-6.166549 l -21.82554,17.052189 a 44.941158,39.941158 0 0 0 36.05155,16.141647 44.941158,39.941158 0 0 0 36.01537,-16.097205 z" /><rect
       style="opacity:1;fill:none;stroke:#000000;stroke-width:0.0112228;stroke-miterlimit:0;stroke-dasharray:none;stroke-opacity:1"
       id="rect32238"
       width="3.8887773"
       height="9.4887772"
       x="155.08012"
       y="109.36228" /><path
       id="path304"
       style="display:inline;fill:none;stroke:#000000;stroke-width:0.02"
       d="M 125.2149,378.84024 A 46.299889,46.299889 0 0 1 78.915009,425.14013 46.299889,46.299889 0 0 1 32.61512,378.84024 46.299889,46.299889 0 0 1 78.915009,332.54035 46.299889,46.299889 0 0 1 125.2149,378.84024 Z" /><g
       aria-label="1"
       transform="matrix(0.26458333,0,0,0.26458333,0.05713505,-1.2303979)"
       id="text2614"
       style="font-weight:bold;font-size:53.3333px;font-family:Arial;-inkscape-font-specification:'Arial Bold';white-space:pre;shape-inside:url(#rect2616);display:inline;opacity:0.5;fill:none;stroke:#000000;stroke-width:0.755906"><path
         d="m 299.9427,1572.5617 h -7.31771 v -27.5781 q -4.01041,3.75 -9.45312,5.5469 v -6.6407 q 2.86458,-0.9375 6.22396,-3.5416 3.35937,-2.6302 4.60937,-6.1198 h 5.9375 z"
         id="path3374" /></g><g
       aria-label="13"
       transform="matrix(0.26458333,0,0,0.26458333,-67.558396,52.731791)"
       id="text2620"
       style="font-weight:bold;font-size:26.6667px;font-family:Arial;-inkscape-font-specification:'Arial Bold';white-space:pre;shape-inside:url(#rect2622);display:inline;opacity:0.5;fill:none;stroke:#000000;stroke-width:0.755906"><path
         d="m 545.4948,1398.0201 h -3.65885 v -13.789 q -2.00521,1.875 -4.72657,2.7734 v -3.3203 q 1.43229,-0.4688 3.11198,-1.7708 1.67969,-1.3151 2.30469,-3.0599 h 2.96875 z"
         id="path3377" /><path
         d="m 550.83335,1392.955 3.54167,-0.4297 q 0.16928,1.3542 0.91146,2.0704 0.74219,0.7161 1.79688,0.7161 1.13281,0 1.90105,-0.8594 0.78125,-0.8593 0.78125,-2.3177 0,-1.3802 -0.74219,-2.1875 -0.74219,-0.8073 -1.8099,-0.8073 -0.70313,0 -1.67969,0.2735 l 0.40365,-2.9818 q 1.48437,0.039 2.26562,-0.638 0.78126,-0.6901 0.78126,-1.8229 0,-0.9636 -0.57292,-1.5365 -0.57292,-0.5729 -1.52344,-0.5729 -0.9375,0 -1.60157,0.651 -0.66406,0.6511 -0.80729,1.9011 l -3.3724,-0.573 q 0.35156,-1.7317 1.05469,-2.7604 0.71615,-1.0416 1.97917,-1.6276 1.27604,-0.5989 2.85156,-0.5989 2.69532,0 4.32293,1.7187 1.34114,1.4063 1.34114,3.1771 0,2.513 -2.74739,4.0104 1.64062,0.3516 2.61719,1.5755 0.98958,1.224 0.98958,2.9558 0,2.513 -1.83594,4.2838 -1.83594,1.7709 -4.57032,1.7709 -2.59115,0 -4.29688,-1.4844 -1.70573,-1.4974 -1.97917,-3.9063 z"
         id="path3379" /></g><g
       aria-label="2"
       transform="matrix(0.22913589,-0.13229167,0.13229167,0.22913589,-186.9804,101.66161)"
       id="text2626"
       style="font-weight:bold;font-size:53.3333px;font-family:Arial;-inkscape-font-specification:'Arial Bold';white-space:pre;shape-inside:url(#rect2628);display:inline;opacity:0.5;fill:none;stroke:#000000;stroke-width:0.755906"><path
         d="m 354.36978,1538.8957 v 6.7969 h -25.65103 q 0.41667,-3.8542 2.5,-7.2917 2.08333,-3.4636 8.22916,-9.1667 4.94791,-4.6093 6.0677,-6.25 1.51042,-2.2656 1.51042,-4.4791 0,-2.4479 -1.32812,-3.75 -1.30209,-1.3282 -3.61979,-1.3282 -2.29167,0 -3.64583,1.3803 -1.35417,1.3802 -1.5625,4.5833 l -7.29167,-0.7292 q 0.65104,-6.0416 4.08854,-8.6719 3.4375,-2.6302 8.59375,-2.6302 5.65104,0 8.8802,3.0469 3.22917,3.0469 3.22917,7.5781 0,2.5782 -0.9375,4.9219 -0.91146,2.3177 -2.91667,4.8698 -1.32812,1.6927 -4.79166,4.8698 -3.46354,3.1771 -4.40104,4.2187 -0.91146,1.0417 -1.48438,2.0313 z"
         id="path3382" /></g><g
       aria-label="3"
       transform="rotate(-60)"
       id="text2634"
       style="font-weight:bold;font-size:14.1111px;font-family:Arial;-inkscape-font-specification:'Arial Bold';opacity:0.5;fill:none;stroke:#000000;stroke-width:0.2"><path
         d="m -292.74067,291.19951 1.87414,-0.22738 q 0.0896,0.71658 0.48231,1.09554 0.39274,0.37896 0.95084,0.37896 0.59945,0 1.00597,-0.45475 0.41341,-0.45475 0.41341,-1.22645 0,-0.73036 -0.39274,-1.15755 -0.39274,-0.4272 -0.95773,-0.4272 -0.37207,0 -0.88884,0.1447 l 0.2136,-1.57785 q 0.78548,0.0207 1.19889,-0.33762 0.41341,-0.36518 0.41341,-0.96463 0,-0.50987 -0.30317,-0.81304 -0.30317,-0.30317 -0.80615,-0.30317 -0.49609,0 -0.84749,0.34451 -0.3514,0.34451 -0.42719,1.00597 l -1.78456,-0.30317 q 0.18603,-0.9164 0.5581,-1.46072 0.37896,-0.55122 1.04731,-0.86127 0.67524,-0.31695 1.50895,-0.31695 1.42627,0 2.28754,0.9095 0.70969,0.74414 0.70969,1.68121 0,1.3298 -1.45383,2.12217 0.86817,0.18604 1.38493,0.83372 0.52366,0.64767 0.52366,1.56407 0,1.32981 -0.97152,2.26687 -0.97152,0.93707 -2.41846,0.93707 -1.37114,0 -2.27376,-0.78549 -0.90261,-0.79237 -1.04731,-2.06705 z"
         id="path3385" /></g><g
       aria-label="4"
       transform="rotate(-90)"
       id="text2638"
       style="font-weight:bold;font-size:14.1111px;font-family:Arial;-inkscape-font-specification:'Arial Bold';opacity:0.5;fill:none;stroke:#000000;stroke-width:0.2"><path
         d="m -378.82049,114.79482 v -2.0326 h -4.13411 v -1.69499 l 4.38215,-6.41476 h 1.62609 v 6.40787 h 1.25401 v 1.70188 h -1.25401 v 2.0326 z m 0,-3.73448 v -3.45198 l -2.32199,3.45198 z"
         id="path3388" /></g><g
       aria-label="5"
       transform="rotate(-120)"
       id="text2642"
       style="font-weight:bold;font-size:14.1111px;font-family:Arial;-inkscape-font-specification:'Arial Bold';opacity:0.5;fill:none;stroke:#000000;stroke-width:0.2"><path
         d="m -370.65391,-87.788121 1.92925,-0.199816 q 0.0827,0.654568 0.48921,1.040418 0.40652,0.378961 0.93706,0.378961 0.60634,0 1.02664,-0.489204 0.4203,-0.496093 0.4203,-1.48828 0,-0.930175 -0.4203,-1.391817 -0.41341,-0.468533 -1.08176,-0.468533 -0.83371,0 -1.49517,0.73725 l -1.57096,-0.227376 0.99219,-5.257212 h 5.1194 v 1.812119 h -3.65179 l -0.30317,1.715656 q 0.64767,-0.323838 1.32291,-0.323838 1.28847,0 2.18419,0.937065 0.89573,0.937065 0.89573,2.432235 0,1.247124 -0.72347,2.22553 -0.9853,1.336696 -2.73541,1.336696 -1.39871,0 -2.28065,-0.75103 -0.88194,-0.75103 -1.0542,-2.018824 z"
         id="path3391" /></g><g
       aria-label="6"
       transform="rotate(-150)"
       id="text2646"
       style="font-weight:bold;font-size:14.1111px;font-family:Arial;-inkscape-font-specification:'Arial Bold';opacity:0.5;fill:none;stroke:#000000;stroke-width:0.2"><path
         d="m -253.94568,-260.17439 -1.87413,0.20671 q -0.0689,-0.57878 -0.35829,-0.85438 -0.28939,-0.27561 -0.75103,-0.27561 -0.61323,0 -1.04042,0.55121 -0.4203,0.55122 -0.53054,2.29443 0.72347,-0.85438 1.79833,-0.85438 1.21268,0 2.07395,0.92329 0.86816,0.92328 0.86816,2.384 0,1.55029 -0.9095,2.48736 -0.9095,0.93706 -2.33577,0.93706 -1.52962,0 -2.51492,-1.18511 -0.9853,-1.192 -0.9853,-3.89984 0,-2.77675 1.02664,-4.0032 1.02664,-1.22645 2.6665,-1.22645 1.15066,0 1.90169,0.64767 0.75792,0.64079 0.96463,1.86724 z m -4.38905,4.22369 q 0,0.94395 0.43408,1.46072 0.43408,0.50987 0.99219,0.50987 0.53743,0 0.89572,-0.4203 0.35829,-0.4203 0.35829,-1.37804 0,-0.98529 -0.38585,-1.44005 -0.38585,-0.46164 -0.96462,-0.46164 -0.55811,0 -0.94396,0.44097 -0.38585,0.43408 -0.38585,1.28847 z"
         id="path3394" /></g><g
       aria-label="7"
       transform="scale(-1)"
       id="text2650"
       style="font-weight:bold;font-size:14.1111px;font-family:Arial;-inkscape-font-specification:'Arial Bold';opacity:0.5;fill:none;stroke:#000000;stroke-width:0.2"><path
         d="m -81.091563,-351.00719 v -1.79833 h 6.621468 v 1.40559 q -0.819932,0.80616 -1.667425,2.31511 -0.847493,1.50895 -1.295355,3.21082 -0.440972,1.69499 -0.434081,3.03168 h -1.867241 q 0.04823,-2.09461 0.861273,-4.27191 0.819932,-2.1773 2.184189,-3.89296 z"
         id="path3397" /></g><g
       aria-label="8"
       transform="rotate(150)"
       id="text2654"
       style="font-weight:bold;font-size:14.1111px;font-family:Arial;-inkscape-font-specification:'Arial Bold';opacity:0.5;fill:none;stroke:#000000;stroke-width:0.2"><path
         d="m 120.57713,-336.72916 q -0.75103,-0.31695 -1.09554,-0.86816 -0.33762,-0.55811 -0.33762,-1.21957 0,-1.12999 0.78548,-1.86724 0.79237,-0.73725 2.2462,-0.73725 1.44005,0 2.23242,0.73725 0.79926,0.73725 0.79926,1.86724 0,0.7028 -0.36518,1.25402 -0.36518,0.54432 -1.02664,0.83371 0.84061,0.33762 1.27469,0.9853 0.44097,0.64767 0.44097,1.49517 0,1.39871 -0.89572,2.27376 -0.88884,0.87505 -2.37023,0.87505 -1.37803,0 -2.29443,-0.72347 -1.08176,-0.85438 -1.08176,-2.34266 0,-0.81993 0.40652,-1.50206 0.40652,-0.68902 1.28158,-1.06109 z m 0.39963,-1.94992 q 0,0.57877 0.32384,0.90261 0.33073,0.32384 0.87505,0.32384 0.55122,0 0.88194,-0.32384 0.33073,-0.33073 0.33073,-0.9095 0,-0.54433 -0.33073,-0.86817 -0.32383,-0.33072 -0.86127,-0.33072 -0.5581,0 -0.88883,0.33072 -0.33073,0.33073 -0.33073,0.87506 z m -0.17915,4.32703 q 0,0.79927 0.40652,1.24713 0.41342,0.44786 1.02664,0.44786 0.59945,0 0.99219,-0.42719 0.39274,-0.43408 0.39274,-1.24712 0,-0.70969 -0.39963,-1.13689 -0.39963,-0.43408 -1.01286,-0.43408 -0.70969,0 -1.06109,0.48921 -0.34451,0.4892 -0.34451,1.06108 z"
         id="path3400" /></g><g
       aria-label="9"
       transform="rotate(120)"
       id="text2658"
       style="font-weight:bold;font-size:14.1111px;font-family:Arial;-inkscape-font-specification:'Arial Bold';opacity:0.5;fill:none;stroke:#000000;stroke-width:0.2"><path
         d="m 286.31144,-223.78379 1.87413,-0.2067 q 0.0689,0.57188 0.35829,0.84749 0.28939,0.27561 0.76481,0.27561 0.59945,0 1.01975,-0.55122 0.4203,-0.55121 0.53743,-2.28754 -0.73036,0.84749 -1.82589,0.84749 -1.19201,0 -2.06017,-0.91639 -0.86127,-0.92328 -0.86127,-2.39778 0,-1.53652 0.9095,-2.47358 0.9164,-0.94396 2.32888,-0.94396 1.53652,0 2.52181,1.19201 0.9853,1.18511 0.9853,3.90673 0,2.76986 -1.02664,3.99631 -1.02664,1.22645 -2.67339,1.22645 -1.18511,0 -1.91547,-0.62701 -0.73036,-0.63389 -0.93707,-1.88791 z m 4.38216,-4.23057 q 0,-0.93707 -0.43408,-1.45383 -0.42719,-0.51676 -0.99219,-0.51676 -0.53743,0 -0.89572,0.42719 -0.3514,0.4203 -0.3514,1.38493 0,0.9784 0.38585,1.44004 0.38585,0.45476 0.96462,0.45476 0.55811,0 0.93707,-0.44098 0.38585,-0.44097 0.38585,-1.29535 z"
         id="path3403" /></g><g
       aria-label="10"
       transform="rotate(90)"
       id="text2662"
       style="font-weight:bold;font-size:14.1111px;font-family:Arial;-inkscape-font-specification:'Arial Bold';opacity:0.5;fill:none;stroke:#000000;stroke-width:0.2"><path
         d="m 376.62121,-42.832989 h -1.93614 v -7.296706 q -1.06109,0.992186 -2.50114,1.467609 v -1.756997 q 0.75792,-0.248047 1.64675,-0.937065 0.88884,-0.695909 1.21957,-1.619194 h 1.57096 z"
         id="path3406" /><path
         d="m 382.78792,-52.975342 q 1.46761,0 2.29444,1.047308 0.98529,1.240234 0.98529,4.113441 0,2.866317 -0.99218,4.120331 -0.81994,1.033528 -2.28755,1.033528 -1.4745,0 -2.37711,-1.129991 -0.90261,-1.13688 -0.90261,-4.044539 0,-2.852536 0.99218,-4.10655 0.81993,-1.033528 2.28754,-1.033528 z m 0,1.605413 q -0.3514,0 -0.627,0.227376 -0.27561,0.220486 -0.42719,0.799262 -0.19982,0.75103 -0.19982,2.528698 0,1.777668 0.17915,2.446016 0.17914,0.661458 0.44786,0.881944 0.2756,0.220486 0.627,0.220486 0.3514,0 0.62701,-0.220486 0.27561,-0.227376 0.42719,-0.806152 0.19982,-0.74414 0.19982,-2.521808 0,-1.777668 -0.17915,-2.439126 -0.17914,-0.668348 -0.45475,-0.888834 -0.26872,-0.227376 -0.62012,-0.227376 z"
         id="path3408" /></g><g
       aria-label="11"
       transform="rotate(60)"
       id="text2666"
       style="font-weight:bold;font-size:14.1111px;font-family:Arial;-inkscape-font-specification:'Arial Bold';opacity:0.5;fill:none;stroke:#000000;stroke-width:0.2"><path
         d="m 365.36434,157.34874 h -1.93614 v -7.29671 q -1.06109,0.99219 -2.50114,1.46761 v -1.75699 q 0.75792,-0.24805 1.64676,-0.93707 0.88883,-0.69591 1.21956,-1.61919 h 1.57096 z"
         id="path3411" /><path
         d="m 372.43367,157.34874 h -1.93614 v -7.29671 q -1.06109,0.99219 -2.50114,1.46761 v -1.75699 q 0.75792,-0.24805 1.64676,-0.93707 0.88883,-0.69591 1.21956,-1.61919 h 1.57096 z"
         id="path3413" /></g><g
       aria-label="12"
       transform="rotate(30)"
       id="text2670"
       style="font-weight:bold;font-size:14.1111px;font-family:Arial;-inkscape-font-specification:'Arial Bold';opacity:0.5;fill:none;stroke:#000000;stroke-width:0.2"><path
         d="m 254.60049,324.58456 h -1.93615 v -7.2967 q -1.06108,0.99218 -2.50113,1.46761 v -1.757 q 0.75792,-0.24805 1.64675,-0.93707 0.88884,-0.6959 1.21956,-1.61919 h 1.57097 z"
         id="path3416" /><path
         d="m 264.03315,322.78623 v 1.79833 h -6.78683 q 0.11024,-1.01974 0.66146,-1.92925 0.55121,-0.91639 2.17729,-2.42534 1.30914,-1.21957 1.60542,-1.65365 0.39963,-0.59944 0.39963,-1.18511 0,-0.64768 -0.3514,-0.99219 -0.34451,-0.3514 -0.95774,-0.3514 -0.60633,0 -0.96462,0.36518 -0.35829,0.36518 -0.41341,1.21268 l -1.92926,-0.19293 q 0.17226,-1.59852 1.08176,-2.29443 0.90951,-0.69591 2.27376,-0.69591 1.49517,0 2.34956,0.80615 0.85438,0.80615 0.85438,2.00505 0,0.68213 -0.24805,1.30224 -0.24115,0.61323 -0.7717,1.28847 -0.3514,0.44786 -1.26779,1.28846 -0.9164,0.8406 -1.16444,1.11621 -0.24116,0.27561 -0.39274,0.53744 z"
         id="path3418" /></g><g
       aria-label="14"
       transform="rotate(-30)"
       id="text2674"
       style="font-weight:bold;font-size:7.05556px;font-family:Arial;-inkscape-font-specification:'Arial Bold';opacity:0.5;fill:none;stroke:#000000;stroke-width:0.2"><path
         d="m -123.38928,411.3103 h -0.96807 v -3.64836 q -0.53055,0.4961 -1.25058,0.73381 v -0.8785 q 0.37897,-0.12402 0.82338,-0.46853 0.44442,-0.34796 0.60979,-0.8096 h 0.78548 z"
         id="path3421" /><path
         d="m -120.04409,411.3103 v -1.0163 h -2.06706 v -0.8475 l 2.19108,-3.20738 h 0.81304 v 3.20394 h 0.62701 v 0.85094 h -0.62701 v 1.0163 z m 0,-1.86724 v -1.72599 l -1.161,1.72599 z"
         id="path3423" /></g><g
       aria-label="15"
       transform="rotate(-60)"
       id="text2678"
       style="font-weight:bold;font-size:7.05556px;font-family:Arial;-inkscape-font-specification:'Arial Bold';opacity:0.5;fill:none;stroke:#000000;stroke-width:0.2"><path
         d="m -290.59483,301.49072 h -0.96808 v -3.64836 q -0.53054,0.4961 -1.25057,0.73381 v -0.8785 q 0.37896,-0.12402 0.82338,-0.46853 0.44442,-0.34796 0.60978,-0.8096 h 0.78549 z"
         id="path3426" /><path
         d="m -289.13411,300.19192 0.96463,-0.0999 q 0.0413,0.32729 0.2446,0.52021 0.20326,0.18948 0.46853,0.18948 0.30317,0 0.51332,-0.2446 0.21015,-0.24805 0.21015,-0.74414 0,-0.46509 -0.21015,-0.69591 -0.20671,-0.23427 -0.54088,-0.23427 -0.41686,0 -0.74759,0.36863 l -0.78548,-0.11369 0.4961,-2.62861 h 2.5597 v 0.90606 h -1.8259 l -0.15158,0.85783 q 0.32384,-0.16192 0.66146,-0.16192 0.64423,0 1.09209,0.46854 0.44786,0.46853 0.44786,1.21611 0,0.62357 -0.36173,1.11277 -0.49265,0.66835 -1.3677,0.66835 -0.69936,0 -1.14033,-0.37552 -0.44097,-0.37551 -0.5271,-1.00941 z"
         id="path3428" /></g><g
       aria-label="16"
       transform="rotate(-90)"
       id="text2682"
       style="font-weight:bold;font-size:7.05556px;font-family:Arial;-inkscape-font-specification:'Arial Bold';opacity:0.5;fill:none;stroke:#000000;stroke-width:0.2"><path
         d="m -380.51411,122.64655 h -0.96808 v -3.64836 q -0.53054,0.4961 -1.25057,0.73381 v -0.8785 q 0.37896,-0.12402 0.82338,-0.46853 0.44442,-0.34796 0.60978,-0.8096 h 0.78549 z"
         id="path3431" /><path
         d="m -375.78744,118.83283 -0.93707,0.10335 q -0.0344,-0.28939 -0.17914,-0.42719 -0.1447,-0.1378 -0.37552,-0.1378 -0.30661,0 -0.52021,0.2756 -0.21015,0.27561 -0.26527,1.14722 0.36174,-0.42719 0.89917,-0.42719 0.60634,0 1.03698,0.46164 0.43408,0.46165 0.43408,1.19201 0,0.77514 -0.45476,1.24368 -0.45475,0.46853 -1.16788,0.46853 -0.76482,0 -1.25746,-0.59256 -0.49265,-0.596 -0.49265,-1.94992 0,-1.38838 0.51332,-2.0016 0.51332,-0.61323 1.33325,-0.61323 0.57533,0 0.95085,0.32384 0.37896,0.32039 0.48231,0.93362 z m -2.19453,2.11184 q 0,0.47198 0.21704,0.73037 0.21704,0.25493 0.4961,0.25493 0.26872,0 0.44786,-0.21015 0.17915,-0.21015 0.17915,-0.68902 0,-0.49265 -0.19293,-0.72002 -0.19293,-0.23082 -0.48231,-0.23082 -0.27906,0 -0.47198,0.22048 -0.19293,0.21704 -0.19293,0.64423 z"
         id="path3433" /></g><g
       aria-label="17"
       transform="rotate(-120)"
       id="text2686"
       style="font-weight:bold;font-size:7.05556px;font-family:Arial;-inkscape-font-specification:'Arial Bold';opacity:0.5;fill:none;stroke:#000000;stroke-width:0.2"><path
         d="m -368.76909,-77.326195 h -0.96807 v -3.648358 q -0.53055,0.496094 -1.25057,0.733806 v -0.8785 q 0.37896,-0.124024 0.82338,-0.468534 0.44441,-0.347955 0.60978,-0.809598 h 0.78548 z"
         id="path3436" /><path
         d="m -367.32215,-81.408636 v -0.89917 h 3.31074 v 0.7028 q -0.40997,0.403076 -0.83371,1.157553 -0.42375,0.754476 -0.64768,1.605415 -0.22049,0.847494 -0.21704,1.515843 h -0.93362 q 0.0241,-1.047309 0.43063,-2.13596 0.40997,-1.088651 1.0921,-1.946481 z"
         id="path3438" /></g><g
       aria-label="18"
       transform="rotate(-150)"
       id="text2690"
       style="font-weight:bold;font-size:7.05556px;font-family:Arial;-inkscape-font-specification:'Arial Bold';opacity:0.5;fill:none;stroke:#000000;stroke-width:0.2"><path
         d="m -258.29662,-244.81258 h -0.96807 v -3.64835 q -0.53054,0.49609 -1.25057,0.7338 v -0.8785 q 0.37896,-0.12402 0.82338,-0.46853 0.44442,-0.34796 0.60978,-0.8096 h 0.78548 z"
         id="path3441" /><path
         d="m -256.01941,-247.53765 q -0.37551,-0.15847 -0.54777,-0.43408 -0.16881,-0.27905 -0.16881,-0.60978 0,-0.565 0.39275,-0.93362 0.39618,-0.36863 1.1231,-0.36863 0.72002,0 1.11621,0.36863 0.39963,0.36862 0.39963,0.93362 0,0.3514 -0.18259,0.627 -0.18259,0.27217 -0.51332,0.41686 0.4203,0.16881 0.63734,0.49265 0.22049,0.32384 0.22049,0.74759 0,0.69935 -0.44786,1.13688 -0.44442,0.43753 -1.18512,0.43753 -0.68902,0 -1.14721,-0.36174 -0.54088,-0.42719 -0.54088,-1.17133 0,-0.40997 0.20326,-0.75103 0.20326,-0.34451 0.64078,-0.53055 z m 0.19982,-0.97496 q 0,0.28939 0.16192,0.45131 0.16536,0.16192 0.43753,0.16192 0.2756,0 0.44097,-0.16192 0.16536,-0.16537 0.16536,-0.45476 0,-0.27216 -0.16536,-0.43408 -0.16192,-0.16536 -0.43064,-0.16536 -0.27905,0 -0.44442,0.16536 -0.16536,0.16537 -0.16536,0.43753 z m -0.0896,2.16352 q 0,0.39963 0.20326,0.62356 0.2067,0.22393 0.51332,0.22393 0.29972,0 0.49609,-0.21359 0.19637,-0.21704 0.19637,-0.62356 0,-0.35485 -0.19981,-0.56845 -0.19982,-0.21704 -0.50643,-0.21704 -0.35485,0 -0.53055,0.24461 -0.17225,0.2446 -0.17225,0.53054 z"
         id="path3443" /></g><g
       aria-label="19"
       transform="scale(-1)"
       id="text2694"
       style="font-weight:bold;font-size:7.05556px;font-family:Arial;-inkscape-font-specification:'Arial Bold';opacity:0.5;fill:none;stroke:#000000;stroke-width:0.2"><path
         d="m -79.223762,-334.9429 h -0.968073 v -3.64836 q -0.530545,0.49609 -1.25057,0.73381 v -0.8785 q 0.37896,-0.12403 0.823378,-0.46854 0.444418,-0.34795 0.609782,-0.8096 h 0.785483 z"
         id="path3446" /><path
         d="m -77.756151,-336.11079 0.937067,-0.10335 q 0.03445,0.28594 0.179145,0.42374 0.144694,0.13781 0.382406,0.13781 0.299723,0 0.509874,-0.27561 0.210151,-0.27561 0.268718,-1.14377 -0.36518,0.42375 -0.912951,0.42375 -0.596002,0 -1.030084,-0.4582 -0.430637,-0.46165 -0.430637,-1.1989 0,-0.76825 0.454752,-1.23679 0.458198,-0.47198 1.164444,-0.47198 0.768256,0 1.260905,0.59601 0.492649,0.59255 0.492649,1.95337 0,1.38493 -0.513319,1.99815 -0.51332,0.61323 -1.336698,0.61323 -0.592557,0 -0.957737,-0.3135 -0.365181,-0.31695 -0.468534,-0.94396 z m 2.191082,-2.11529 q 0,-0.46853 -0.217041,-0.72692 -0.213596,-0.25838 -0.496094,-0.25838 -0.268717,0 -0.447862,0.2136 -0.1757,0.21015 -0.1757,0.69246 0,0.48921 0.192925,0.72003 0.192926,0.22737 0.482314,0.22737 0.279053,0 0.468533,-0.22048 0.192925,-0.22049 0.192925,-0.64768 z"
         id="path3448" /></g><g
       aria-label="20"
       transform="rotate(150)"
       id="text2698"
       style="font-weight:bold;font-size:7.05556px;font-family:Arial;-inkscape-font-specification:'Arial Bold';opacity:0.5;fill:none;stroke:#000000;stroke-width:0.2"><path
         d="m 121.80952,-324.5332 v 0.89917 h -3.39342 q 0.0551,-0.50988 0.33073,-0.96463 0.27561,-0.4582 1.08865,-1.21267 0.65457,-0.60979 0.80271,-0.82683 0.19982,-0.29972 0.19982,-0.59256 0,-0.32383 -0.1757,-0.49609 -0.17226,-0.1757 -0.47887,-0.1757 -0.30317,0 -0.48232,0.18259 -0.17914,0.18259 -0.2067,0.60634 l -0.96463,-0.0965 q 0.0861,-0.79927 0.54088,-1.14722 0.45475,-0.34796 1.13688,-0.34796 0.74759,0 1.17478,0.40308 0.42719,0.40308 0.42719,1.00252 0,0.34107 -0.12402,0.65113 -0.12058,0.30661 -0.38585,0.64423 -0.1757,0.22393 -0.6339,0.64423 -0.4582,0.4203 -0.58222,0.55811 -0.12058,0.1378 -0.19637,0.26872 z"
         id="path3451" /><path
         d="m 124.10051,-328.70522 q 0.73381,0 1.14722,0.52366 0.49265,0.62012 0.49265,2.05672 0,1.43316 -0.49609,2.06017 -0.40997,0.51676 -1.14378,0.51676 -0.73725,0 -1.18856,-0.56499 -0.4513,-0.56844 -0.4513,-2.02227 0,-1.42627 0.49609,-2.05328 0.40997,-0.51677 1.14377,-0.51677 z m 0,0.80271 q -0.1757,0 -0.3135,0.11369 -0.1378,0.11024 -0.2136,0.39963 -0.0999,0.37552 -0.0999,1.26435 0,0.88884 0.0896,1.22301 0.0896,0.33073 0.22393,0.44097 0.1378,0.11025 0.3135,0.11025 0.1757,0 0.31351,-0.11025 0.1378,-0.11368 0.21359,-0.40307 0.0999,-0.37207 0.0999,-1.26091 0,-0.88883 -0.0896,-1.21956 -0.0896,-0.33418 -0.22738,-0.44442 -0.13436,-0.11369 -0.31006,-0.11369 z"
         id="path3453" /></g><g
       aria-label="21"
       transform="rotate(120)"
       id="text2702"
       style="font-weight:bold;font-size:7.05556px;font-family:Arial;-inkscape-font-specification:'Arial Bold';opacity:0.5;fill:none;stroke:#000000;stroke-width:0.2"><path
         d="m 289.24463,-214.60532 v 0.89917 h -3.39342 q 0.0551,-0.50987 0.33073,-0.96462 0.2756,-0.4582 1.08865,-1.21268 0.65457,-0.60978 0.8027,-0.82682 0.19982,-0.29972 0.19982,-0.59256 0,-0.32384 -0.1757,-0.49609 -0.17225,-0.1757 -0.47887,-0.1757 -0.30317,0 -0.48231,0.18259 -0.17915,0.18259 -0.20671,0.60634 l -0.96463,-0.0965 q 0.0861,-0.79926 0.54089,-1.14722 0.45475,-0.34795 1.13688,-0.34795 0.74758,0 1.17478,0.40308 0.42719,0.40307 0.42719,1.00252 0,0.34106 -0.12403,0.65112 -0.12057,0.30662 -0.38585,0.64424 -0.1757,0.22393 -0.63389,0.64423 -0.4582,0.4203 -0.58223,0.55811 -0.12057,0.1378 -0.19637,0.26871 z"
         id="path3456" /><path
         d="m 292.37622,-213.70615 h -0.96807 v -3.64835 q -0.53055,0.49609 -1.25057,0.7338 v -0.8785 q 0.37896,-0.12402 0.82338,-0.46853 0.44441,-0.34796 0.60978,-0.8096 h 0.78548 z"
         id="path3458" /></g><g
       aria-label="22"
       transform="rotate(90)"
       id="text2706"
       style="font-weight:bold;font-size:7.05556px;font-family:Arial;-inkscape-font-specification:'Arial Bold';opacity:0.5;fill:none;stroke:#000000;stroke-width:0.2"><path
         d="m 378.8168,-35.816407 v 0.899171 h -3.39342 q 0.0551,-0.509875 0.33073,-0.964628 0.27561,-0.458198 1.08865,-1.212674 0.65457,-0.609782 0.80271,-0.826824 0.19981,-0.299723 0.19981,-0.592556 0,-0.32384 -0.1757,-0.496094 -0.17225,-0.1757 -0.47886,-0.1757 -0.30317,0 -0.48232,0.18259 -0.17914,0.18259 -0.2067,0.606337 l -0.96463,-0.09646 q 0.0861,-0.799262 0.54088,-1.147217 0.45475,-0.347955 1.13688,-0.347955 0.74759,0 1.17478,0.403076 0.42719,0.403077 0.42719,1.002524 0,0.341064 -0.12402,0.651123 -0.12058,0.306614 -0.38585,0.644233 -0.1757,0.223932 -0.6339,0.644234 -0.4582,0.420302 -0.58222,0.558106 -0.12058,0.137803 -0.19637,0.268717 z"
         id="path3461" /><path
         d="m 382.74077,-35.816407 v 0.899171 h -3.39342 q 0.0551,-0.509875 0.33073,-0.964628 0.2756,-0.458198 1.08865,-1.212674 0.65457,-0.609782 0.80271,-0.826824 0.19981,-0.299723 0.19981,-0.592556 0,-0.32384 -0.1757,-0.496094 -0.17225,-0.1757 -0.47887,-0.1757 -0.30317,0 -0.48231,0.18259 -0.17915,0.18259 -0.20671,0.606337 l -0.96462,-0.09646 q 0.0861,-0.799262 0.54088,-1.147217 0.45475,-0.347955 1.13688,-0.347955 0.74758,0 1.17478,0.403076 0.42719,0.403077 0.42719,1.002524 0,0.341064 -0.12403,0.651123 -0.12057,0.306614 -0.38585,0.644233 -0.1757,0.223932 -0.63389,0.644234 -0.4582,0.420302 -0.58223,0.558106 -0.12057,0.137803 -0.19637,0.268717 z"
         id="path3463" /></g><g
       aria-label="23"
       transform="rotate(60)"
       id="text2710"
       style="font-weight:bold;font-size:7.05556px;font-family:Arial;-inkscape-font-specification:'Arial Bold';opacity:0.5;fill:none;stroke:#000000;stroke-width:0.2"><path
         d="m 366.91006,164.12004 v 0.89917 h -3.39342 q 0.0551,-0.50987 0.33073,-0.96463 0.27561,-0.45819 1.08865,-1.21267 0.65457,-0.60978 0.80271,-0.82682 0.19982,-0.29973 0.19982,-0.59256 0,-0.32384 -0.1757,-0.4961 -0.17226,-0.1757 -0.47887,-0.1757 -0.30317,0 -0.48232,0.18259 -0.17914,0.1826 -0.2067,0.60634 l -0.96463,-0.0965 q 0.0861,-0.79926 0.54088,-1.14722 0.45475,-0.34795 1.13688,-0.34795 0.74759,0 1.17478,0.40307 0.42719,0.40308 0.42719,1.00253 0,0.34106 -0.12402,0.65112 -0.12058,0.30661 -0.38585,0.64423 -0.1757,0.22393 -0.6339,0.64424 -0.4582,0.4203 -0.58222,0.5581 -0.12058,0.13781 -0.19637,0.26872 z"
         id="path3466" /><path
         d="m 367.53018,163.67907 0.93707,-0.11369 q 0.0448,0.35829 0.24115,0.54777 0.19638,0.18948 0.47543,0.18948 0.29972,0 0.50298,-0.22738 0.20671,-0.22737 0.20671,-0.61322 0,-0.36518 -0.19637,-0.57878 -0.19637,-0.2136 -0.47887,-0.2136 -0.18604,0 -0.44442,0.0724 l 0.1068,-0.78893 q 0.39274,0.0103 0.59945,-0.16881 0.2067,-0.18259 0.2067,-0.48231 0,-0.25494 -0.15158,-0.40652 -0.15159,-0.15159 -0.40308,-0.15159 -0.24805,0 -0.42375,0.17226 -0.1757,0.17225 -0.21359,0.50298 l -0.89228,-0.15158 q 0.093,-0.4582 0.27905,-0.73036 0.18948,-0.27561 0.52366,-0.43064 0.33762,-0.15847 0.75447,-0.15847 0.71314,0 1.14377,0.45475 0.35485,0.37207 0.35485,0.8406 0,0.66491 -0.72692,1.06109 0.43409,0.093 0.69247,0.41686 0.26183,0.32384 0.26183,0.78204 0,0.6649 -0.48576,1.13343 -0.48576,0.46854 -1.20923,0.46854 -0.68558,0 -1.13688,-0.39274 -0.45131,-0.39619 -0.52366,-1.03353 z"
         id="path3468" /></g><g
       aria-label="24"
       transform="rotate(30)"
       id="text2714"
       style="font-weight:bold;font-size:7.05556px;font-family:Arial;-inkscape-font-specification:'Arial Bold';opacity:0.5;fill:none;stroke:#000000;stroke-width:0.2"><path
         d="m 256.37552,331.63452 v 0.89917 h -3.39342 q 0.0551,-0.50987 0.33073,-0.96463 0.2756,-0.45819 1.08865,-1.21267 0.65457,-0.60978 0.8027,-0.82682 0.19982,-0.29973 0.19982,-0.59256 0,-0.32384 -0.1757,-0.49609 -0.17225,-0.1757 -0.47887,-0.1757 -0.30317,0 -0.48231,0.18259 -0.17915,0.18259 -0.20671,0.60633 l -0.96463,-0.0965 q 0.0861,-0.79926 0.54089,-1.14722 0.45475,-0.34795 1.13688,-0.34795 0.74758,0 1.17478,0.40307 0.42719,0.40308 0.42719,1.00253 0,0.34106 -0.12403,0.65112 -0.12057,0.30661 -0.38585,0.64423 -0.1757,0.22394 -0.63389,0.64424 -0.4582,0.4203 -0.58223,0.5581 -0.12057,0.13781 -0.19637,0.26872 z"
         id="path3471" /><path
         d="m 258.92834,332.53369 v -1.0163 h -2.06706 v -0.8475 l 2.19108,-3.20738 h 0.81304 v 3.20394 h 0.62701 v 0.85094 h -0.62701 v 1.0163 z m 0,-1.86724 v -1.726 l -1.161,1.726 z"
         id="path3473" /></g><g
       aria-label="I"
       transform="matrix(0.34292387,0,0,0.2217396,-11.817669,82.604119)"
       id="text2716"
       style="font-weight:bold;font-size:21.3333px;font-family:Arial;-inkscape-font-specification:'Arial Bold';white-space:pre;shape-inside:url(#rect2718);opacity:0.5;fill:none;stroke:#000000;stroke-width:0.755906"><path
         d="m 259.79622,1446.3059 v -15.2708 h 3.08333 v 15.2708 z"
         id="path3476" /></g><g
       aria-label="I"
       transform="matrix(0.29698078,-0.17146194,0.1108698,0.19203213,-147.81477,167.58789)"
       id="text2722"
       style="font-weight:bold;font-size:21.3333px;font-family:Arial;-inkscape-font-specification:'Arial Bold';white-space:pre;shape-inside:url(#rect2724);opacity:0.5;fill:none;stroke:#000000;stroke-width:0.755906"><path
         d="m 259.79622,1446.3059 v -15.2708 h 3.08333 v 15.2708 z"
         id="path3479" /></g><g
       aria-label="I"
       transform="matrix(0.17146194,-0.29698078,0.19203213,0.1108698,-222.92495,308.93999)"
       id="text2726"
       style="font-weight:bold;font-size:21.3333px;font-family:Arial;-inkscape-font-specification:'Arial Bold';white-space:pre;shape-inside:url(#rect2728);opacity:0.5;fill:none;stroke:#000000;stroke-width:0.755906"><path
         d="m 259.79622,1446.3059 v -15.2708 h 3.08333 v 15.2708 z"
         id="path3482" /></g><g
       aria-label="I"
       transform="matrix(0,-0.34292387,0.2217396,0,-217.47001,468.72922)"
       id="text2730"
       style="font-weight:bold;font-size:21.3333px;font-family:Arial;-inkscape-font-specification:'Arial Bold';white-space:pre;shape-inside:url(#rect2732);opacity:0.5;fill:none;stroke:#000000;stroke-width:0.755906"><path
         d="m 259.79622,1446.3059 v -15.2708 h 3.08333 v 15.2708 z"
         id="path3485" /></g><g
       aria-label="I"
       transform="matrix(-0.17146194,-0.29698078,0.19203213,-0.1108698,-133.11913,604.31818)"
       id="text2734"
       style="font-weight:bold;font-size:21.3333px;font-family:Arial;-inkscape-font-specification:'Arial Bold';white-space:pre;shape-inside:url(#rect2736);opacity:0.5;fill:none;stroke:#000000;stroke-width:0.755906"><path
         d="m 259.79622,1446.3059 v -15.2708 h 3.08333 v 15.2708 z"
         id="path3488" /></g><g
       aria-label="I"
       transform="matrix(-0.29698078,-0.17146194,0.1108698,-0.19203213,7.6934018,679.8361)"
       id="text2738"
       style="font-weight:bold;font-size:21.3333px;font-family:Arial;-inkscape-font-specification:'Arial Bold';white-space:pre;shape-inside:url(#rect2740);opacity:0.5;fill:none;stroke:#000000;stroke-width:0.755906"><path
         d="m 259.79622,1446.3059 v -15.2708 h 3.08333 v 15.2708 z"
         id="path3491" /></g><g
       aria-label="I"
       transform="matrix(-0.34292387,0,0,-0.2217396,167.45487,675.06456)"
       id="text2742"
       style="font-weight:bold;font-size:21.3333px;font-family:Arial;-inkscape-font-specification:'Arial Bold';white-space:pre;shape-inside:url(#rect2744);opacity:0.5;fill:none;stroke:#000000;stroke-width:0.755906"><path
         d="m 259.79622,1446.3059 v -15.2708 h 3.08333 v 15.2708 z"
         id="path3494" /></g><g
       aria-label="I"
       transform="matrix(-0.29698078,0.17146193,-0.1108698,-0.19203213,303.6837,591.08731)"
       id="text2746"
       style="font-weight:bold;font-size:21.3333px;font-family:Arial;-inkscape-font-specification:'Arial Bold';white-space:pre;shape-inside:url(#rect2748);opacity:0.5;fill:none;stroke:#000000;stroke-width:0.755906"><path
         d="m 259.79622,1446.3059 v -15.2708 h 3.08333 v 15.2708 z"
         id="path3497" /></g><g
       aria-label="I"
       transform="matrix(-0.17146193,0.29698078,-0.19203213,-0.1108698,379.81392,449.93574)"
       id="text2750"
       style="font-weight:bold;font-size:21.3333px;font-family:Arial;-inkscape-font-specification:'Arial Bold';white-space:pre;shape-inside:url(#rect2752);opacity:0.5;fill:none;stroke:#000000;stroke-width:0.755906"><path
         d="m 259.79622,1446.3059 v -15.2708 h 3.08333 v 15.2708 z"
         id="path3500" /></g><g
       aria-label="I"
       transform="matrix(0,0.34292387,-0.2217396,0,375.0092,289.46912)"
       id="text2754"
       style="font-weight:bold;font-size:21.3333px;font-family:Arial;-inkscape-font-specification:'Arial Bold';white-space:pre;shape-inside:url(#rect2756);opacity:0.5;fill:none;stroke:#000000;stroke-width:0.755906"><path
         d="m 259.79622,1446.3059 v -15.2708 h 3.08333 v 15.2708 z"
         id="path3503" /></g><g
       aria-label="I"
       transform="matrix(0.17146194,0.29698078,-0.19203213,0.1108698,290.28008,152.91098)"
       id="text2758"
       style="font-weight:bold;font-size:21.3333px;font-family:Arial;-inkscape-font-specification:'Arial Bold';white-space:pre;shape-inside:url(#rect2760);opacity:0.5;fill:none;stroke:#000000;stroke-width:0.755906"><path
         d="m 259.79622,1446.3059 v -15.2708 h 3.08333 v 15.2708 z"
         id="path3506" /></g><g
       aria-label="I"
       transform="matrix(0.29698078,0.17146193,-0.1108698,0.19203213,148.69433,77.125256)"
       id="text2762"
       style="font-weight:bold;font-size:21.3333px;font-family:Arial;-inkscape-font-specification:'Arial Bold';white-space:pre;shape-inside:url(#rect2764);opacity:0.5;fill:none;stroke:#000000;stroke-width:0.755906"><path
         d="m 259.79622,1446.3059 v -15.2708 h 3.08333 v 15.2708 z"
         id="path3509" /></g><g
       aria-label="I"
       transform="matrix(0.15264126,-0.0409001,0.04872668,0.18185046,-26.392503,149.88518)"
       id="text2786"
       style="font-weight:bold;font-size:21.3333px;font-family:Arial;-inkscape-font-specification:'Arial Bold';white-space:pre;shape-inside:url(#rect2788);opacity:0.5;fill:none;stroke:#000000;stroke-width:0.755906"><path
         d="m 259.79622,1446.3059 v -15.2708 h 3.08333 v 15.2708 z"
         id="path3512" /></g><g
       aria-label="I"
       transform="matrix(0.11174116,-0.11174116,0.13312378,0.13312378,-126.66381,233.0297)"
       id="text2790"
       style="font-weight:bold;font-size:21.3333px;font-family:Arial;-inkscape-font-specification:'Arial Bold';white-space:pre;shape-inside:url(#rect2792);opacity:0.5;fill:none;stroke:#000000;stroke-width:0.755906"><path
         d="m 259.79622,1446.3059 v -15.2708 h 3.08333 v 15.2708 z"
         id="path3515" /></g><g
       aria-label="I"
       transform="matrix(0.0409001,-0.15264126,0.18185046,0.04872668,-171.93057,354.93687)"
       id="text2794"
       style="font-weight:bold;font-size:21.3333px;font-family:Arial;-inkscape-font-specification:'Arial Bold';white-space:pre;shape-inside:url(#rect2796);opacity:0.5;fill:none;stroke:#000000;stroke-width:0.755906"><path
         d="m 259.79622,1446.3059 v -15.2708 h 3.08333 v 15.2708 z"
         id="path3518" /></g><g
       aria-label="I"
       transform="matrix(-0.0409001,-0.15264126,0.18185046,-0.04872668,-150.42175,483.00574)"
       id="text2798"
       style="font-weight:bold;font-size:21.3333px;font-family:Arial;-inkscape-font-specification:'Arial Bold';white-space:pre;shape-inside:url(#rect2800);opacity:0.5;fill:none;stroke:#000000;stroke-width:0.755906"><path
         d="m 259.79622,1446.3059 v -15.2708 h 3.08333 v 15.2708 z"
         id="path3521" /></g><g
       aria-label="I"
       transform="matrix(-0.11174116,-0.11174116,0.13312378,-0.13312378,-67.974515,583.31774)"
       id="text2802"
       style="font-weight:bold;font-size:21.3333px;font-family:Arial;-inkscape-font-specification:'Arial Bold';white-space:pre;shape-inside:url(#rect2804);opacity:0.5;fill:none;stroke:#000000;stroke-width:0.755906"><path
         d="m 259.79622,1446.3059 v -15.2708 h 3.08333 v 15.2708 z"
         id="path3524" /></g><g
       aria-label="I"
       transform="matrix(-0.15264126,-0.0409001,0.04872668,-0.18185046,53.545694,629.22293)"
       id="text2806"
       style="font-weight:bold;font-size:21.3333px;font-family:Arial;-inkscape-font-specification:'Arial Bold';white-space:pre;shape-inside:url(#rect2808);opacity:0.5;fill:none;stroke:#000000;stroke-width:0.755906"><path
         d="m 259.79622,1446.3059 v -15.2708 h 3.08333 v 15.2708 z"
         id="path3527" /></g><g
       aria-label="I"
       transform="matrix(-0.15264126,0.0409001,-0.04872668,-0.18185046,181.96132,608.32955)"
       id="text2810"
       style="font-weight:bold;font-size:21.3333px;font-family:Arial;-inkscape-font-specification:'Arial Bold';white-space:pre;shape-inside:url(#rect2812);opacity:0.5;fill:none;stroke:#000000;stroke-width:0.755906"><path
         d="m 259.79622,1446.3059 v -15.2708 h 3.08333 v 15.2708 z"
         id="path3530" /></g><g
       aria-label="I"
       transform="matrix(-0.11174116,0.11174116,-0.13312378,-0.13312378,282.98465,525.87902)"
       id="text2814"
       style="font-weight:bold;font-size:21.3333px;font-family:Arial;-inkscape-font-specification:'Arial Bold';white-space:pre;shape-inside:url(#rect2816);opacity:0.5;fill:none;stroke:#000000;stroke-width:0.755906"><path
         d="m 259.79622,1446.3059 v -15.2708 h 3.08333 v 15.2708 z"
         id="path3533" /></g><g
       aria-label="I"
       transform="matrix(-0.0409001,0.15264126,-0.18185046,-0.04872668,329.21024,403.71147)"
       id="text2818"
       style="font-weight:bold;font-size:21.3333px;font-family:Arial;-inkscape-font-specification:'Arial Bold';white-space:pre;shape-inside:url(#rect2820);opacity:0.5;fill:none;stroke:#000000;stroke-width:0.755906"><path
         d="m 259.79622,1446.3059 v -15.2708 h 3.08333 v 15.2708 z"
         id="path3536" /></g><g
       aria-label="I"
       transform="matrix(0.0409001,0.15264126,-0.18185046,0.04872668,307.97046,274.68946)"
       id="text2822"
       style="font-weight:bold;font-size:21.3333px;font-family:Arial;-inkscape-font-specification:'Arial Bold';white-space:pre;shape-inside:url(#rect2824);opacity:0.5;fill:none;stroke:#000000;stroke-width:0.755906"><path
         d="m 259.79622,1446.3059 v -15.2708 h 3.08333 v 15.2708 z"
         id="path3539" /></g><g
       aria-label="I"
       transform="matrix(0.11174116,0.11174116,-0.13312378,0.13312378,224.84533,173.70218)"
       id="text2826"
       style="font-weight:bold;font-size:21.3333px;font-family:Arial;-inkscape-font-specification:'Arial Bold';white-space:pre;shape-inside:url(#rect2828);opacity:0.5;fill:none;stroke:#000000;stroke-width:0.755906"><path
         d="m 259.79622,1446.3059 v -15.2708 h 3.08333 v 15.2708 z"
         id="path3542" /></g><g
       aria-label="I"
       transform="matrix(0.15264126,0.0409001,-0.04872668,0.18185046,102.31685,128.0269)"
       id="text2830"
       style="font-weight:bold;font-size:21.3333px;font-family:Arial;-inkscape-font-specification:'Arial Bold';white-space:pre;shape-inside:url(#rect2832);opacity:0.5;fill:none;stroke:#000000;stroke-width:0.755906"><path
         d="m 259.79622,1446.3059 v -15.2708 h 3.08333 v 15.2708 z"
         id="path3545" /></g><path
       id="path2966"
       style="display:inline;opacity:0.5;fill:none;stroke:#000000;stroke-width:1.55533;stroke-dasharray:3.11067, 1.55533"
       d="m 78.01528,379.12891 a 0.22134182,0.22134182 0 0 1 -0.221342,0.22134 0.22134182,0.22134182 0 0 1 -0.221342,-0.22134 0.22134182,0.22134182 0 0 1 0.221342,-0.22135 0.22134182,0.22134182 0 0 1 0.221342,0.22135 z" /></g></svg>
