<?xml version="1.0" encoding="UTF-8" standalone="no"?>
<!-- Created with Inkscape (http://www.inkscape.org/) -->

<svg
   width="164.27983mm"
   height="535.25598mm"
   viewBox="0 0 164.27983 535.25598"
   version="1.1"
   id="svg271"
   xml:space="preserve"
   inkscape:version="1.2.2 (732a01da63, 2022-12-09)"
   sodipodi:docname="parkkikiekko_111x154x32.svg"
   xmlns:inkscape="http://www.inkscape.org/namespaces/inkscape"
   xmlns:sodipodi="http://sodipodi.sourceforge.net/DTD/sodipodi-0.dtd"
   xmlns="http://www.w3.org/2000/svg"
   xmlns:svg="http://www.w3.org/2000/svg"><sodipodi:namedview
     id="namedview273"
     pagecolor="#ffffff"
     bordercolor="#000000"
     borderopacity="0.25"
     inkscape:showpageshadow="2"
     inkscape:pageopacity="0.0"
     inkscape:pagecheckerboard="0"
     inkscape:deskcolor="#d1d1d1"
     inkscape:document-units="mm"
     showgrid="false"
     inkscape:zoom="0.70710678"
     inkscape:cx="107.48023"
     inkscape:cy="519.72348"
     inkscape:window-width="1920"
     inkscape:window-height="1001"
     inkscape:window-x="-9"
     inkscape:window-y="-9"
     inkscape:window-maximized="1"
     inkscape:current-layer="layer1" /><defs
     id="defs268"><inkscape:path-effect
       effect="fillet_chamfer"
       id="path-effect9884"
       is_visible="true"
       lpeversion="1"
       nodesatellites_param="F,0,0,1,0,6.35,0,1 @ F,0,0,1,0,6.35,0,1 @ F,0,0,1,0,6.35,0,1 @ F,0,0,1,0,6.35,0,1"
       unit="px"
       method="auto"
       mode="F"
       radius="24"
       chamfer_steps="1"
       flexible="false"
       use_knot_distance="true"
       apply_no_radius="true"
       apply_with_radius="true"
       only_selected="false"
       hide_knots="false" /><inkscape:path-effect
       effect="fillet_chamfer"
       id="path-effect9827"
       is_visible="true"
       lpeversion="1"
       nodesatellites_param="F,1,0,1,0,0.14,0,1 @ F,1,0,1,0,0.14,0,1 @ F,1,0,1,0,0.14,0,1 @ F,1,0,1,0,0.14,0,1"
       unit="px"
       method="auto"
       mode="F"
       radius="14"
       chamfer_steps="1"
       flexible="true"
       use_knot_distance="true"
       apply_no_radius="true"
       apply_with_radius="true"
       only_selected="false"
       hide_knots="false" /><rect
       x="-930.25702"
       y="449.5267"
       width="90.685432"
       height="124.81436"
       id="rect419" /><rect
       x="-1055.0714"
       y="71.183189"
       width="260.35495"
       height="45.830273"
       id="rect363" /></defs><g
     inkscape:label="Taso 1"
     inkscape:groupmode="layer"
     id="layer1"
     transform="translate(-1.2732114,-1.1082104)"><g
       id="svgGroup-3"
       stroke-linecap="round"
       fill-rule="evenodd"
       font-size="12px"
       stroke="#000"
       stroke-width="0.25mm"
       fill="none"
       style="fill:none;stroke:#000000;stroke-width:0.02;stroke-dasharray:none"
       transform="translate(2.3262819,-38.987355)"><g
         id="svgGroup"
         stroke-linecap="round"
         fill-rule="evenodd"
         font-size="12px"
         stroke="#000"
         stroke-width="0.25mm"
         fill="none"
         style="fill:none;stroke:#000000;stroke-width:0.02;stroke-dasharray:none"
         transform="translate(-234.03326,38.207913)"><path
           d="m 258.07519,162.07438 h 6.952 v 3 h 7.673 v -3 h 6.952 v 3 h 7.673 v -3 h 14.484 v 3 h 7.673 v -3 h 6.952 v 3 h 7.673 v -3 h 6.952 v 3 h 7.673 v -3 h 7.258 l 2.495,-0.45 2.194,-1.303 1.601,-1.987 0.801,-2.413 0.073,-1.021 v -8.991 h 3 v -7.673 h -3 v -6.952 h 3 v -7.673 h -3 v -6.952 h 3 v -7.673 h -3 v -6.952 h 3 v -7.673 h -3 v -6.952 h 3 v -7.673 h -3 v -6.952 h 3 v -7.673 h -3 v -6.952 h 3 v -7.673 h -3 v -6.952 h 3 v -7.673 h -3 v -6.952 h 3 v -7.673 h -3 v -9.001 l -0.45,-2.4950004 -1.303,-2.194 -1.993,-1.605 -3.411,-0.87 h -11.031 v -3 h -7.673 v 3 h -6.952 v -3 h -7.673 v 3 h -6.952 v -3 h -7.673 v 3 h -6.952 v -3 h -7.673 v 3 h -6.952 v -3 h -7.673 v 3 h -6.952 v -3 h -7.673 v 3 h -11.024 l -2.495,0.45 -2.194,1.303 -1.601,1.987 -0.801,2.4130004 -0.073,1.021 v 8.991 h -3 v 7.673 h 3 v 6.952 h -3 v 7.673 h 3 v 6.952 h -3 v 7.673 h 3 v 6.952 h -3 v 7.673 h 3 v 6.952 h -3 v 7.673 h 3 v 6.952 h -3 v 7.673 h 3 v 6.952 h -3 v 7.673 h 3 v 6.952 h -3 v 7.673 h 3 v 6.952 h -3 v 7.673 h 3 v 9.001 l 0.45,2.495 1.303,2.194 1.987,1.601 2.413,0.801 1.021,0.073 h 7.248 v 3 h 7.673 z"
           id="TOP_outsideCutPath"
           stroke="#FF0000"
           stroke-width="0.1"
           style="stroke:#000000;stroke-width:0.02;stroke-dasharray:none;stroke-opacity:1"
           vector-effect="non-scaling-stroke" /><path
           d="m 258.68983,328.363 h 6.952 v 3 h 7.673 v -3 h 6.952 v 3 h 7.673 v -3 h 14.484 v 3 h 7.673 v -3 h 6.952 v 3 h 7.673 v -3 h 6.952 v 3 h 7.673 v -3 h 7.258 l 2.495,-0.45 2.194,-1.303 1.601,-1.987 0.801,-2.413 0.073,-1.021 v -8.991 h 3 v -7.673 h -3 v -6.952 h 3 V 289.9 h -3 v -6.952 h 3 v -7.673 h -3 v -6.952 h 3 v -7.673 h -3 v -6.952 h 3 v -7.673 h -3 v -6.952 h 3 V 231.4 h -3 v -6.952 h 3 v -7.673 h -3 v -6.952 h 3 v -7.673 h -3 v -6.952 h 3 v -7.673 h -3 v -9.001 l -0.45,-2.495 -1.303,-2.194 -1.993,-1.605 -3.411,-0.87 h -11.031 v -3 h -7.673 v 3 h -6.952 v -3 h -7.673 v 3 h -6.952 v -3 h -7.673 v 3 h -6.952 v -3 h -7.673 v 3 h -6.952 v -3 h -7.673 v 3 h -6.952 v -3 h -7.673 v 3 h -11.024 l -2.495,0.45 -2.194,1.303 -1.601,1.987 -0.801,2.413 -0.073,1.021 v 8.991 h -3 v 7.673 h 3 v 6.952 h -3 v 7.673 h 3 v 6.952 h -3 v 7.673 h 3 v 6.952 h -3 v 7.673 h 3 v 6.952 h -3 v 7.673 h 3 v 6.952 h -3 v 7.673 h 3 v 6.952 h -3 v 7.673 h 3 v 6.952 h -3 v 7.673 h 3 v 6.952 h -3 v 7.673 h 3 v 9.001 l 0.45,2.495 1.303,2.194 1.987,1.601 2.413,0.801 1.021,0.073 h 7.248 v 3 h 7.673 z"
           id="BOTTOM_outsideCutPath"
           stroke="#FF0000"
           stroke-width="0.1"
           style="stroke:#000000;stroke-width:0.02;stroke-dasharray:none;stroke-opacity:1"
           vector-effect="non-scaling-stroke" /><path
           id="SIDE_outsideCutPath"
           style="stroke:#000000;stroke-width:0.02;stroke-dasharray:none;stroke-opacity:1"
           d="m 361.90002,9.669653 v 6.953 h -3 v 7.672 h 3 v 6.953 h -3 v 7.672 h 3 v 6.953 h -3 v 27.943 h 3 v 6.952 h -3 v 7.673 h 3 v 6.951997 h -3 v 7.673 h 3 v 6.952 h -3 v 7.673 h 3 v 6.952 h -3 v 7.673 h 3 v 6.952 h -3 v 7.673 h 3 v 6.952 h -3 v 7.673 h 3 v 6.952 h -3 v 7.673 h 3 v 6.952 h -3 v 7.673 h 3 v 6.952 h -3 v 31.709 h 3 v 6.953 h -3 v 7.672 h 3 v 6.953 h -3 v 7.672 h 3 v 6.953 h -3 v 7.672 h 3 v 6.953 h -3 v 7.672 h 3 v 6.953 h -3 v 7.672 h 3 v 6.953 h -3 v 31.708 h 3 v 6.953 h -3 v 7.672 h 3 v 6.953 h -3 v 7.672 h 3 v 6.953 h -3 v 7.672 h 3 v 6.953 h -3 v 7.672 h 3 v 6.953 h -3 v 7.672 h 3 v 6.953 h -3 v 7.672 h 3 v 6.953 h -3 v 7.672 h 3 v 6.953 h -3 v 7.672 h 3 v 6.953 h -3 v 27.943 h 3 v 6.952 h -3 v 7.673 h 3 v 6.952 h -3 v 7.673 h 3 v 6.952 h -3 v 7.783 h 38.36 v -7.783 h -3 v -6.952 h 3 v -7.673 h -3 v -6.952 h 3 v -7.673 h -3 v -6.952 h 3 v -27.943 h -3 v -6.953 h 3 v -7.672 h -3 v -6.953 h 3 v -7.672 h -3 v -6.953 h 3 v -7.672 h -3 v -6.953 h 3 v -7.672 h -3 v -6.953 h 3 v -7.672 h -3 v -6.953 h 3 v -7.672 h -3 v -6.953 h 3 v -7.672 h -3 v -6.953 h 3 v -7.672 h -3 v -6.953 h 3 v -31.708 h -3 v -6.953 h 3 v -7.672 h -3 v -6.953 h 3 v -7.672 h -3 v -6.953 h 3 v -7.672 h -3 v -6.953 h 3 v -7.672 h -3 v -6.953 h 3 v -7.672 h -3 v -6.953 h 3 v -31.709 h -3 v -6.952 h 3 v -7.673 h -3 v -6.952 h 3 v -7.673 h -3 v -6.952 h 3 v -7.673 h -3 v -6.952 h 3 v -7.673 h -3 v -6.952 h 3 v -7.673 h -3 v -6.952 h 3 v -7.673 h -3 v -6.952 h 3 v -7.673 h -3 v -6.951997 h 3 v -7.673 h -3 v -6.952 h 3 v -27.943 h -3 v -6.953 h 3 v -7.672 h -3 v -6.953 h 3 v -7.672 h -3 v -6.953 h 3 V 1.8876529 h -38.36 V 9.669653 Z m -2.82,43.805 h 9.5 m 4.75,0 h 9.5 m 4.75,0 h 9.5 m -38,3.998 h 2.375 m 4.75,0 h 9.5 m 4.75,0 h 9.5 m 4.75,0 h 2.375 m -38,3.998 h 9.5 m 4.75,0 h 9.5 m 4.75,0 h 9.5 m -38,145.641997 h 9.5 m 4.75,0 h 9.5 m 4.75,0 h 9.5 m -38,3.998 h 2.375 m 4.75,0 h 9.5 m 4.75,0 h 9.5 m 4.75,0 h 2.375 m -38,3.998 h 9.5 m 4.75,0 h 9.5 m 4.75,0 h 9.5 m -38,105.814 h 9.5 m 4.75,0 h 9.5 m 4.75,0 h 9.5 m -38,3.998 h 2.375 m 4.75,0 h 9.5 m 4.75,0 h 9.5 m 4.75,0 h 2.375 m -38,3.997 h 9.5 m 4.75,0 h 9.5 m 4.75,0 h 9.5 m -38,145.643 h 9.5 m 4.75,0 h 9.5 m 4.75,0 h 9.5 m -38,3.998 h 2.375 m 4.75,0 h 9.5 m 4.75,0 h 9.5 m 4.75,0 h 2.375 m -38,3.998 h 9.5 m 4.75,0 h 9.5 m 4.75,0 h 9.5 M 390.68141,73.597193 v 14.94586 h -6.94586 v -14.94586 z" /></g></g><text
       xml:space="preserve"
       transform="matrix(0.26458325,0,0,0.3220531,309.0542,0.92603504)"
       id="text361"
       style="font-weight:bold;font-size:33.3333px;font-family:sans-serif;-inkscape-font-specification:'sans-serif Bold';letter-spacing:0px;white-space:pre;shape-inside:url(#rect363);display:inline;opacity:0.5;fill:#000000;stroke:none;stroke-width:0;stroke-dasharray:none;stroke-opacity:1"><tspan
         x="-1055.0723"
         y="101.51274"
         id="tspan32381"><tspan
           style="font-family:Arial;-inkscape-font-specification:'Arial Bold'"
           id="tspan32379">SAAPUMISAIKA</tspan></tspan></text><text
       xml:space="preserve"
       transform="matrix(0.38710986,0,0,0.37345997,411.60187,-55.579182)"
       id="text417"
       style="font-style:normal;font-variant:normal;font-weight:bold;font-stretch:normal;font-size:96px;font-family:Arial;-inkscape-font-specification:'Arial Bold';white-space:pre;shape-inside:url(#rect419);display:inline;opacity:0.5;fill:#000000;stroke:none;stroke-width:0;stroke-dasharray:none;stroke-opacity:1"><tspan
         x="-930.25781"
         y="535.99977"
         id="tspan32383">P</tspan></text><path
       id="rect485"
       style="opacity:0.5;fill:none;stroke:#0021ff;stroke-width:0.02;stroke-linecap:round;stroke-linejoin:round;stroke-miterlimit:0;stroke-dasharray:none;paint-order:markers stroke fill"
       inkscape:label="rect485"
       d="m 50.020274,112.36759 h 28.227178 a 5.124,5.124 45 0 1 5.124,5.124 v 26.04674 a 5.4292616,5.4292616 135 0 1 -5.429262,5.42926 H 49.715012 a 5.124,5.124 45 0 1 -5.124,-5.124 v -26.04674 a 5.4292616,5.4292616 135 0 1 5.429262,-5.42926 z"
       inkscape:original-d="m 44.591012,112.36759 h 38.78044 v 36.6 h -38.78044 z"
       inkscape:path-effect="#path-effect9827" /><path
       sodipodi:type="star"
       style="opacity:0.5;fill:none;stroke:#000000;stroke-width:0.604642;stroke-linecap:butt;stroke-linejoin:round;stroke-miterlimit:0;stroke-dasharray:none;stroke-opacity:1;paint-order:markers stroke fill"
       id="path5183"
       inkscape:flatsided="true"
       sodipodi:sides="3"
       sodipodi:cx="-244.60728"
       sodipodi:cy="41.341145"
       sodipodi:r1="18.719271"
       sodipodi:r2="9.3596354"
       sodipodi:arg1="1.5707963"
       sodipodi:arg2="2.6179939"
       inkscape:rounded="0"
       inkscape:randomized="0"
       d="m -244.60728,60.060415 -16.21137,-28.078905 32.42273,-1e-6 z"
       inkscape:transform-center-x="-1.304701e-06"
       inkscape:transform-center-y="5.6960356"
       transform="matrix(0.56182319,0,0,1.2171487,201.42214,0.32536064)" /><path
       id="rect9881"
       style="display:inline;opacity:0.5;fill:none;stroke:#001ddd;stroke-width:0.02;stroke-linejoin:round;stroke-miterlimit:0;stroke-dasharray:none;paint-order:markers stroke fill"
       d="m 49.547262,110.79174 h 28.92643 a 6.35,6.35 45 0 1 6.35,6.35 v 27.05554 a 6.35,6.35 135 0 1 -6.35,6.35 h -28.92643 a 6.35,6.35 45 0 1 -6.35,-6.35 l 0,-27.05554 a 6.35,6.35 135 0 1 6.35,-6.35 z"
       inkscape:original-d="m 43.197262,110.79174 h 41.62643 v 39.75554 h -41.62643 z"
       inkscape:path-effect="#path-effect9884" /><path
       id="path13214"
       style="display:inline;fill:none;stroke:#000002;stroke-width:0.02;stroke-miterlimit:0;stroke-dasharray:none"
       d="m 78.035202,70.428102 a 16.426409,12.426408 0 0 1 -14.17691,6.177401 16.426409,12.426408 0 0 1 -14.16761,-6.166549 l -21.82554,17.052189 a 44.941158,39.941158 0 0 0 36.05155,16.141647 44.941158,39.941158 0 0 0 36.01537,-16.097205 z" /><rect
       style="opacity:1;fill:none;stroke:#000000;stroke-width:0.0112228;stroke-miterlimit:0;stroke-dasharray:none;stroke-opacity:1"
       id="rect32238"
       width="3.8887773"
       height="9.4887772"
       x="155.08012"
       y="109.36228" /></g></svg>
